<mxfile host="app.diagrams.net" modified="2022-03-25T07:53:02.729Z" agent="5.0 (Windows NT 10.0; Win64; x64) AppleWebKit/537.36 (KHTML, like Gecko) Chrome/99.0.4844.82 Safari/537.36" etag="bLSYwEEPzeCg28D8oUlc" version="17.2.2" type="github" pages="2">
  <diagram id="UvWgrCAcSxphAOkIdbQq" name="第 1 页">
    <mxGraphModel dx="1064" dy="1822" grid="1" gridSize="10" guides="1" tooltips="1" connect="1" arrows="1" fold="1" page="1" pageScale="1" pageWidth="827" pageHeight="1169" math="0" shadow="0">
      <root>
        <mxCell id="0" />
        <mxCell id="1" parent="0" />
        <mxCell id="ZjnKSZYK-CwiIYMaD3G1-1" value="&lt;font style=&quot;font-size: 22px&quot;&gt;仓库&lt;/font&gt;" style="rounded=0;whiteSpace=wrap;html=1;" parent="1" vertex="1">
          <mxGeometry x="750" y="20" width="110" height="50" as="geometry" />
        </mxCell>
        <mxCell id="ZjnKSZYK-CwiIYMaD3G1-2" value="&lt;font style=&quot;font-size: 22px&quot;&gt;零件&lt;/font&gt;" style="rounded=0;whiteSpace=wrap;html=1;" parent="1" vertex="1">
          <mxGeometry x="750" y="220" width="110" height="50" as="geometry" />
        </mxCell>
        <mxCell id="ZjnKSZYK-CwiIYMaD3G1-3" value="&lt;font style=&quot;font-size: 22px&quot;&gt;供应商&lt;/font&gt;" style="rounded=0;whiteSpace=wrap;html=1;" parent="1" vertex="1">
          <mxGeometry x="470" y="400" width="110" height="50" as="geometry" />
        </mxCell>
        <mxCell id="ZjnKSZYK-CwiIYMaD3G1-4" value="存储" style="rhombus;whiteSpace=wrap;html=1;fontSize=22;rotation=0;" parent="1" vertex="1">
          <mxGeometry x="755" y="120" width="100" height="50" as="geometry" />
        </mxCell>
        <mxCell id="ZjnKSZYK-CwiIYMaD3G1-5" value="" style="endArrow=none;html=1;rounded=0;fontSize=22;entryX=0.5;entryY=1;entryDx=0;entryDy=0;exitX=0.5;exitY=0;exitDx=0;exitDy=0;" parent="1" source="ZjnKSZYK-CwiIYMaD3G1-4" target="ZjnKSZYK-CwiIYMaD3G1-1" edge="1">
          <mxGeometry width="50" height="50" relative="1" as="geometry">
            <mxPoint x="740" y="300" as="sourcePoint" />
            <mxPoint x="790" y="250" as="targetPoint" />
          </mxGeometry>
        </mxCell>
        <mxCell id="ZjnKSZYK-CwiIYMaD3G1-6" value="" style="endArrow=none;html=1;rounded=0;fontSize=22;entryX=0.5;entryY=1;entryDx=0;entryDy=0;exitX=0.5;exitY=0;exitDx=0;exitDy=0;" parent="1" source="ZjnKSZYK-CwiIYMaD3G1-2" target="ZjnKSZYK-CwiIYMaD3G1-4" edge="1">
          <mxGeometry width="50" height="50" relative="1" as="geometry">
            <mxPoint x="740" y="300" as="sourcePoint" />
            <mxPoint x="790" y="250" as="targetPoint" />
          </mxGeometry>
        </mxCell>
        <mxCell id="ZjnKSZYK-CwiIYMaD3G1-7" value="" style="endArrow=none;html=1;rounded=0;fontSize=22;entryX=0;entryY=1;entryDx=0;entryDy=0;" parent="1" target="ZjnKSZYK-CwiIYMaD3G1-2" edge="1">
          <mxGeometry width="50" height="50" relative="1" as="geometry">
            <mxPoint x="690" y="320" as="sourcePoint" />
            <mxPoint x="790" y="250" as="targetPoint" />
            <Array as="points">
              <mxPoint x="690" y="320" />
            </Array>
          </mxGeometry>
        </mxCell>
        <mxCell id="ZjnKSZYK-CwiIYMaD3G1-9" value="" style="endArrow=none;html=1;rounded=0;fontSize=22;" parent="1" edge="1">
          <mxGeometry width="50" height="50" relative="1" as="geometry">
            <mxPoint x="580" y="400" as="sourcePoint" />
            <mxPoint x="650" y="350" as="targetPoint" />
            <Array as="points">
              <mxPoint x="580" y="400" />
            </Array>
          </mxGeometry>
        </mxCell>
        <mxCell id="ZjnKSZYK-CwiIYMaD3G1-10" value="供应" style="rhombus;whiteSpace=wrap;html=1;fontSize=22;rotation=15;" parent="1" vertex="1">
          <mxGeometry x="620" y="310" width="100" height="50" as="geometry" />
        </mxCell>
        <mxCell id="ZjnKSZYK-CwiIYMaD3G1-12" value="&lt;font style=&quot;font-size: 22px&quot;&gt;项目工程&lt;/font&gt;" style="rounded=0;whiteSpace=wrap;html=1;" parent="1" vertex="1">
          <mxGeometry x="1090" y="240" width="110" height="50" as="geometry" />
        </mxCell>
        <mxCell id="ZjnKSZYK-CwiIYMaD3G1-14" value="提供" style="rhombus;whiteSpace=wrap;html=1;fontSize=22;rotation=30;" parent="1" vertex="1">
          <mxGeometry x="950" y="130.00000000000003" width="110" height="50" as="geometry" />
        </mxCell>
        <mxCell id="ZjnKSZYK-CwiIYMaD3G1-15" value="" style="endArrow=none;html=1;rounded=0;fontSize=22;entryX=1;entryY=1;entryDx=0;entryDy=0;exitX=0;exitY=0.5;exitDx=0;exitDy=0;" parent="1" source="ZjnKSZYK-CwiIYMaD3G1-14" target="ZjnKSZYK-CwiIYMaD3G1-1" edge="1">
          <mxGeometry width="50" height="50" relative="1" as="geometry">
            <mxPoint x="770" y="300" as="sourcePoint" />
            <mxPoint x="820" y="250" as="targetPoint" />
          </mxGeometry>
        </mxCell>
        <mxCell id="ZjnKSZYK-CwiIYMaD3G1-16" value="" style="endArrow=none;html=1;rounded=0;fontSize=22;entryX=1;entryY=1;entryDx=0;entryDy=0;exitX=0;exitY=0.5;exitDx=0;exitDy=0;" parent="1" edge="1">
          <mxGeometry width="50" height="50" relative="1" as="geometry">
            <mxPoint x="1143.6886027918558" y="237.5" as="sourcePoint" />
            <mxPoint x="1046.32" y="180" as="targetPoint" />
          </mxGeometry>
        </mxCell>
        <mxCell id="ZjnKSZYK-CwiIYMaD3G1-17" value="编号" style="ellipse;whiteSpace=wrap;html=1;fontSize=22;" parent="1" vertex="1">
          <mxGeometry x="760" y="-110" width="96" height="50" as="geometry" />
        </mxCell>
        <mxCell id="ZjnKSZYK-CwiIYMaD3G1-18" value="地址" style="ellipse;whiteSpace=wrap;html=1;fontSize=22;" parent="1" vertex="1">
          <mxGeometry x="900" y="-110" width="96" height="50" as="geometry" />
        </mxCell>
        <mxCell id="ZjnKSZYK-CwiIYMaD3G1-19" value="仓库名" style="ellipse;whiteSpace=wrap;html=1;fontSize=22;" parent="1" vertex="1">
          <mxGeometry x="620" y="-110" width="96" height="50" as="geometry" />
        </mxCell>
        <mxCell id="ZjnKSZYK-CwiIYMaD3G1-20" value="" style="endArrow=none;html=1;rounded=0;fontSize=22;entryX=0.367;entryY=0.984;entryDx=0;entryDy=0;entryPerimeter=0;" parent="1" edge="1">
          <mxGeometry width="50" height="50" relative="1" as="geometry">
            <mxPoint x="830" y="20" as="sourcePoint" />
            <mxPoint x="925.232" y="-60.799999999999955" as="targetPoint" />
          </mxGeometry>
        </mxCell>
        <mxCell id="ZjnKSZYK-CwiIYMaD3G1-21" value="" style="endArrow=none;html=1;rounded=0;fontSize=22;entryX=0.667;entryY=0.984;entryDx=0;entryDy=0;exitX=0.356;exitY=0.016;exitDx=0;exitDy=0;exitPerimeter=0;entryPerimeter=0;" parent="1" source="ZjnKSZYK-CwiIYMaD3G1-1" edge="1">
          <mxGeometry width="50" height="50" relative="1" as="geometry">
            <mxPoint x="764.77" y="20.799999999999997" as="sourcePoint" />
            <mxPoint x="674.0319999999999" y="-60.799999999999955" as="targetPoint" />
          </mxGeometry>
        </mxCell>
        <mxCell id="ZjnKSZYK-CwiIYMaD3G1-22" value="" style="endArrow=none;html=1;rounded=0;fontSize=22;entryX=0.575;entryY=1.048;entryDx=0;entryDy=0;entryPerimeter=0;" parent="1" edge="1">
          <mxGeometry width="50" height="50" relative="1" as="geometry">
            <mxPoint x="805" y="20" as="sourcePoint" />
            <mxPoint x="805.2" y="-57.59999999999991" as="targetPoint" />
          </mxGeometry>
        </mxCell>
        <mxCell id="ZjnKSZYK-CwiIYMaD3G1-23" value="数量" style="ellipse;whiteSpace=wrap;html=1;fontSize=22;" parent="1" vertex="1">
          <mxGeometry x="940" y="350" width="75" height="50" as="geometry" />
        </mxCell>
        <mxCell id="ZjnKSZYK-CwiIYMaD3G1-25" value="单价" style="ellipse;whiteSpace=wrap;html=1;fontSize=22;" parent="1" vertex="1">
          <mxGeometry x="980" y="280" width="75" height="50" as="geometry" />
        </mxCell>
        <mxCell id="ZjnKSZYK-CwiIYMaD3G1-26" value="名称" style="ellipse;whiteSpace=wrap;html=1;fontSize=22;" parent="1" vertex="1">
          <mxGeometry x="750" y="380" width="75" height="50" as="geometry" />
        </mxCell>
        <mxCell id="ZjnKSZYK-CwiIYMaD3G1-27" value="质量" style="ellipse;whiteSpace=wrap;html=1;fontSize=22;" parent="1" vertex="1">
          <mxGeometry x="855" y="400" width="75" height="50" as="geometry" />
        </mxCell>
        <mxCell id="ZjnKSZYK-CwiIYMaD3G1-28" value="" style="endArrow=none;html=1;rounded=0;fontSize=22;entryX=0.5;entryY=1;entryDx=0;entryDy=0;" parent="1" target="ZjnKSZYK-CwiIYMaD3G1-2" edge="1">
          <mxGeometry width="50" height="50" relative="1" as="geometry">
            <mxPoint x="800" y="380" as="sourcePoint" />
            <mxPoint x="850" y="330" as="targetPoint" />
          </mxGeometry>
        </mxCell>
        <mxCell id="ZjnKSZYK-CwiIYMaD3G1-29" value="" style="endArrow=none;html=1;rounded=0;fontSize=22;entryX=0.5;entryY=1;entryDx=0;entryDy=0;exitX=0.5;exitY=0;exitDx=0;exitDy=0;" parent="1" source="ZjnKSZYK-CwiIYMaD3G1-27" target="ZjnKSZYK-CwiIYMaD3G1-2" edge="1">
          <mxGeometry width="50" height="50" relative="1" as="geometry">
            <mxPoint x="810" y="390" as="sourcePoint" />
            <mxPoint x="815" y="280" as="targetPoint" />
          </mxGeometry>
        </mxCell>
        <mxCell id="ZjnKSZYK-CwiIYMaD3G1-30" value="" style="endArrow=none;html=1;rounded=0;fontSize=22;entryX=0.5;entryY=1;entryDx=0;entryDy=0;exitX=0;exitY=0;exitDx=0;exitDy=0;" parent="1" source="ZjnKSZYK-CwiIYMaD3G1-23" target="ZjnKSZYK-CwiIYMaD3G1-2" edge="1">
          <mxGeometry width="50" height="50" relative="1" as="geometry">
            <mxPoint x="902.5" y="410" as="sourcePoint" />
            <mxPoint x="815" y="280" as="targetPoint" />
          </mxGeometry>
        </mxCell>
        <mxCell id="ZjnKSZYK-CwiIYMaD3G1-31" value="" style="endArrow=none;html=1;rounded=0;fontSize=22;exitX=0;exitY=0.5;exitDx=0;exitDy=0;" parent="1" source="ZjnKSZYK-CwiIYMaD3G1-25" edge="1">
          <mxGeometry width="50" height="50" relative="1" as="geometry">
            <mxPoint x="961.1964694393778" y="367.18147929764336" as="sourcePoint" />
            <mxPoint x="810" y="270" as="targetPoint" />
          </mxGeometry>
        </mxCell>
        <mxCell id="ZjnKSZYK-CwiIYMaD3G1-32" value="名称" style="ellipse;whiteSpace=wrap;html=1;fontSize=22;" parent="1" vertex="1">
          <mxGeometry x="330" y="470" width="75" height="50" as="geometry" />
        </mxCell>
        <mxCell id="ZjnKSZYK-CwiIYMaD3G1-33" value="地址" style="ellipse;whiteSpace=wrap;html=1;fontSize=22;" parent="1" vertex="1">
          <mxGeometry x="330" y="360" width="75" height="50" as="geometry" />
        </mxCell>
        <mxCell id="ZjnKSZYK-CwiIYMaD3G1-35" value="" style="endArrow=none;html=1;rounded=0;fontSize=22;entryX=0;entryY=0.5;entryDx=0;entryDy=0;" parent="1" target="ZjnKSZYK-CwiIYMaD3G1-3" edge="1">
          <mxGeometry width="50" height="50" relative="1" as="geometry">
            <mxPoint x="405" y="390" as="sourcePoint" />
            <mxPoint x="455" y="340" as="targetPoint" />
          </mxGeometry>
        </mxCell>
        <mxCell id="ZjnKSZYK-CwiIYMaD3G1-36" value="" style="endArrow=none;html=1;rounded=0;fontSize=22;entryX=0;entryY=0.5;entryDx=0;entryDy=0;exitX=0.97;exitY=0.227;exitDx=0;exitDy=0;exitPerimeter=0;" parent="1" source="ZjnKSZYK-CwiIYMaD3G1-32" target="ZjnKSZYK-CwiIYMaD3G1-3" edge="1">
          <mxGeometry width="50" height="50" relative="1" as="geometry">
            <mxPoint x="415" y="400" as="sourcePoint" />
            <mxPoint x="480" y="435" as="targetPoint" />
          </mxGeometry>
        </mxCell>
        <mxCell id="ZjnKSZYK-CwiIYMaD3G1-37" value="N" style="text;html=1;strokeColor=none;fillColor=none;align=center;verticalAlign=middle;whiteSpace=wrap;rounded=0;fontSize=22;" parent="1" vertex="1">
          <mxGeometry x="750" y="90" width="60" height="30" as="geometry" />
        </mxCell>
        <mxCell id="ZjnKSZYK-CwiIYMaD3G1-38" value="N" style="text;html=1;strokeColor=none;fillColor=none;align=center;verticalAlign=middle;whiteSpace=wrap;rounded=0;fontSize=22;" parent="1" vertex="1">
          <mxGeometry x="890" y="70" width="60" height="30" as="geometry" />
        </mxCell>
        <mxCell id="ZjnKSZYK-CwiIYMaD3G1-39" value="N" style="text;html=1;strokeColor=none;fillColor=none;align=center;verticalAlign=middle;whiteSpace=wrap;rounded=0;fontSize=22;" parent="1" vertex="1">
          <mxGeometry x="656" y="260" width="60" height="30" as="geometry" />
        </mxCell>
        <mxCell id="ZjnKSZYK-CwiIYMaD3G1-40" value="N" style="text;html=1;strokeColor=none;fillColor=none;align=center;verticalAlign=middle;whiteSpace=wrap;rounded=0;fontSize=22;" parent="1" vertex="1">
          <mxGeometry x="550" y="340" width="60" height="30" as="geometry" />
        </mxCell>
        <mxCell id="ZjnKSZYK-CwiIYMaD3G1-41" value="面积" style="ellipse;whiteSpace=wrap;html=1;fontSize=22;" parent="1" vertex="1">
          <mxGeometry x="545" y="10" width="96" height="50" as="geometry" />
        </mxCell>
        <mxCell id="ZjnKSZYK-CwiIYMaD3G1-42" value="" style="endArrow=none;html=1;rounded=0;fontSize=22;entryX=1;entryY=0.5;entryDx=0;entryDy=0;exitX=0;exitY=0.5;exitDx=0;exitDy=0;" parent="1" source="ZjnKSZYK-CwiIYMaD3G1-1" target="ZjnKSZYK-CwiIYMaD3G1-41" edge="1">
          <mxGeometry width="50" height="50" relative="1" as="geometry">
            <mxPoint x="799.1599999999999" y="30.800000000000182" as="sourcePoint" />
            <mxPoint x="684.0320000000002" y="-50.799999999999955" as="targetPoint" />
          </mxGeometry>
        </mxCell>
        <mxCell id="ZjnKSZYK-CwiIYMaD3G1-44" value="需求数量" style="ellipse;whiteSpace=wrap;html=1;fontSize=22;" parent="1" vertex="1">
          <mxGeometry x="1260" y="180" width="90" height="60" as="geometry" />
        </mxCell>
        <mxCell id="ZjnKSZYK-CwiIYMaD3G1-46" value="质量" style="ellipse;whiteSpace=wrap;html=1;fontSize=22;" parent="1" vertex="1">
          <mxGeometry x="1260" y="300" width="90" height="60" as="geometry" />
        </mxCell>
        <mxCell id="ZjnKSZYK-CwiIYMaD3G1-48" value="" style="endArrow=none;html=1;rounded=0;fontSize=22;exitX=1;exitY=0.5;exitDx=0;exitDy=0;entryX=0;entryY=1;entryDx=0;entryDy=0;" parent="1" source="ZjnKSZYK-CwiIYMaD3G1-12" target="ZjnKSZYK-CwiIYMaD3G1-44" edge="1">
          <mxGeometry width="50" height="50" relative="1" as="geometry">
            <mxPoint x="1200" y="270" as="sourcePoint" />
            <mxPoint x="1270" y="220" as="targetPoint" />
          </mxGeometry>
        </mxCell>
        <mxCell id="ZjnKSZYK-CwiIYMaD3G1-50" value="" style="endArrow=none;html=1;rounded=0;fontSize=22;exitX=1;exitY=0.5;exitDx=0;exitDy=0;" parent="1" source="ZjnKSZYK-CwiIYMaD3G1-12" edge="1">
          <mxGeometry width="50" height="50" relative="1" as="geometry">
            <mxPoint x="1210" y="280" as="sourcePoint" />
            <mxPoint x="1270" y="310" as="targetPoint" />
          </mxGeometry>
        </mxCell>
        <mxCell id="ZjnKSZYK-CwiIYMaD3G1-51" value="&lt;font color=&quot;#990099&quot; style=&quot;line-height: 1.5 ; font-size: 26px&quot;&gt;2504210225&lt;br&gt;王生亮&lt;/font&gt;" style="text;html=1;strokeColor=none;fillColor=none;align=center;verticalAlign=middle;whiteSpace=wrap;rounded=0;fontSize=22;" parent="1" vertex="1">
          <mxGeometry x="345" y="120" width="185" height="90" as="geometry" />
        </mxCell>
      </root>
    </mxGraphModel>
  </diagram>
  <diagram id="eYYHifj1S_owIHUEtToA" name="第 2 页">
    <mxGraphModel dx="2689" dy="1053" grid="0" gridSize="10" guides="1" tooltips="1" connect="1" arrows="1" fold="1" page="0" pageScale="1" pageWidth="827" pageHeight="1169" background="none" math="0" shadow="0">
      <root>
        <mxCell id="0" />
        <mxCell id="1" parent="0" />
        <mxCell id="ZCmT-qgDubSK8P4ru5W7-1" value="&lt;span style=&quot;font-size: 22px&quot;&gt;论文&lt;/span&gt;" style="whiteSpace=wrap;html=1;align=center;" vertex="1" parent="1">
          <mxGeometry x="-500" y="50" width="100" height="40" as="geometry" />
        </mxCell>
        <mxCell id="ZCmT-qgDubSK8P4ru5W7-2" value="&lt;span style=&quot;font-size: 22px&quot;&gt;教师&lt;/span&gt;" style="whiteSpace=wrap;html=1;align=center;" vertex="1" parent="1">
          <mxGeometry x="-870" y="50" width="100" height="40" as="geometry" />
        </mxCell>
        <mxCell id="ZCmT-qgDubSK8P4ru5W7-3" value="&lt;span style=&quot;font-size: 22px&quot;&gt;教研室主任&lt;/span&gt;" style="whiteSpace=wrap;html=1;align=center;" vertex="1" parent="1">
          <mxGeometry x="-150" y="50" width="130" height="40" as="geometry" />
        </mxCell>
        <mxCell id="ZCmT-qgDubSK8P4ru5W7-4" value="&lt;span style=&quot;font-size: 22px&quot;&gt;学生&lt;/span&gt;" style="whiteSpace=wrap;html=1;align=center;" vertex="1" parent="1">
          <mxGeometry x="-495" y="290" width="100" height="40" as="geometry" />
        </mxCell>
        <mxCell id="ZCmT-qgDubSK8P4ru5W7-7" value="提交" style="shape=rhombus;perimeter=rhombusPerimeter;whiteSpace=wrap;html=1;align=center;fontSize=22;" vertex="1" parent="1">
          <mxGeometry x="-690" y="40" width="110" height="60" as="geometry" />
        </mxCell>
        <mxCell id="ZCmT-qgDubSK8P4ru5W7-8" value="审核" style="shape=rhombus;perimeter=rhombusPerimeter;whiteSpace=wrap;html=1;align=center;fontSize=22;" vertex="1" parent="1">
          <mxGeometry x="-330" y="40" width="110" height="60" as="geometry" />
        </mxCell>
        <mxCell id="ZCmT-qgDubSK8P4ru5W7-9" value="" style="line;strokeWidth=1;rotatable=0;dashed=0;labelPosition=right;align=left;verticalAlign=middle;spacingTop=0;spacingLeft=6;points=[];portConstraint=eastwest;fontSize=22;" vertex="1" parent="1">
          <mxGeometry x="-580" y="65" width="80" height="10" as="geometry" />
        </mxCell>
        <mxCell id="ZCmT-qgDubSK8P4ru5W7-10" value="" style="line;strokeWidth=1;rotatable=0;dashed=0;labelPosition=right;align=left;verticalAlign=middle;spacingTop=0;spacingLeft=6;points=[];portConstraint=eastwest;fontSize=22;" vertex="1" parent="1">
          <mxGeometry x="-770" y="65" width="80" height="10" as="geometry" />
        </mxCell>
        <mxCell id="ZCmT-qgDubSK8P4ru5W7-11" value="" style="line;strokeWidth=1;rotatable=0;dashed=0;labelPosition=right;align=left;verticalAlign=middle;spacingTop=0;spacingLeft=6;points=[];portConstraint=eastwest;fontSize=22;" vertex="1" parent="1">
          <mxGeometry x="-400" y="65" width="70" height="10" as="geometry" />
        </mxCell>
        <mxCell id="ZCmT-qgDubSK8P4ru5W7-12" value="" style="line;strokeWidth=1;rotatable=0;dashed=0;labelPosition=right;align=left;verticalAlign=middle;spacingTop=0;spacingLeft=6;points=[];portConstraint=eastwest;fontSize=22;" vertex="1" parent="1">
          <mxGeometry x="-220" y="65" width="70" height="10" as="geometry" />
        </mxCell>
        <mxCell id="ZCmT-qgDubSK8P4ru5W7-18" value="" style="endArrow=none;html=1;rounded=0;fontSize=22;exitX=0.5;exitY=0;exitDx=0;exitDy=0;" edge="1" parent="1" source="ZCmT-qgDubSK8P4ru5W7-13">
          <mxGeometry width="50" height="50" relative="1" as="geometry">
            <mxPoint x="-510" y="90" as="sourcePoint" />
            <mxPoint x="-445" y="90" as="targetPoint" />
          </mxGeometry>
        </mxCell>
        <mxCell id="ZCmT-qgDubSK8P4ru5W7-19" value="" style="endArrow=none;html=1;rounded=0;fontSize=22;startArrow=none;" edge="1" parent="1" source="ZCmT-qgDubSK8P4ru5W7-13">
          <mxGeometry width="50" height="50" relative="1" as="geometry">
            <mxPoint x="-445" y="230" as="sourcePoint" />
            <mxPoint x="-445" y="190" as="targetPoint" />
            <Array as="points" />
          </mxGeometry>
        </mxCell>
        <mxCell id="ZCmT-qgDubSK8P4ru5W7-13" value="选题" style="shape=rhombus;perimeter=rhombusPerimeter;whiteSpace=wrap;html=1;align=center;fontSize=22;" vertex="1" parent="1">
          <mxGeometry x="-500" y="160" width="110" height="60" as="geometry" />
        </mxCell>
        <mxCell id="ZCmT-qgDubSK8P4ru5W7-20" value="" style="endArrow=none;html=1;rounded=0;fontSize=22;" edge="1" parent="1" target="ZCmT-qgDubSK8P4ru5W7-13">
          <mxGeometry width="50" height="50" relative="1" as="geometry">
            <mxPoint x="-445" y="230" as="sourcePoint" />
            <mxPoint x="-445" y="190" as="targetPoint" />
            <Array as="points">
              <mxPoint x="-445" y="290" />
              <mxPoint x="-445" y="230" />
            </Array>
          </mxGeometry>
        </mxCell>
        <mxCell id="ZCmT-qgDubSK8P4ru5W7-22" value="指导" style="shape=rhombus;perimeter=rhombusPerimeter;whiteSpace=wrap;html=1;align=center;fontSize=22;rotation=30;" vertex="1" parent="1">
          <mxGeometry x="-710" y="170" width="90" height="60" as="geometry" />
        </mxCell>
        <mxCell id="ZCmT-qgDubSK8P4ru5W7-23" value="" style="endArrow=none;html=1;rounded=0;fontSize=22;entryX=0.532;entryY=0.985;entryDx=0;entryDy=0;entryPerimeter=0;exitX=0.023;exitY=0.509;exitDx=0;exitDy=0;exitPerimeter=0;" edge="1" parent="1">
          <mxGeometry width="50" height="50" relative="1" as="geometry">
            <mxPoint x="-702.4484705844659" y="180.00265371804358" as="sourcePoint" />
            <mxPoint x="-816.8" y="90.39999999999998" as="targetPoint" />
          </mxGeometry>
        </mxCell>
        <mxCell id="ZCmT-qgDubSK8P4ru5W7-24" value="" style="endArrow=none;html=1;rounded=0;fontSize=22;entryX=0.984;entryY=0.524;entryDx=0;entryDy=0;entryPerimeter=0;" edge="1" parent="1" target="ZCmT-qgDubSK8P4ru5W7-22">
          <mxGeometry width="50" height="50" relative="1" as="geometry">
            <mxPoint x="-495" y="310" as="sourcePoint" />
            <mxPoint x="-625" y="220" as="targetPoint" />
          </mxGeometry>
        </mxCell>
        <mxCell id="ZCmT-qgDubSK8P4ru5W7-25" value="姓名" style="ellipse;whiteSpace=wrap;html=1;align=center;fontSize=22;" vertex="1" parent="1">
          <mxGeometry x="-1010" y="-50" width="70" height="50" as="geometry" />
        </mxCell>
        <mxCell id="ZCmT-qgDubSK8P4ru5W7-26" value="N" style="text;html=1;strokeColor=none;fillColor=none;align=center;verticalAlign=middle;whiteSpace=wrap;rounded=0;fontSize=22;" vertex="1" parent="1">
          <mxGeometry x="-810" y="140" width="60" height="30" as="geometry" />
        </mxCell>
        <mxCell id="ZCmT-qgDubSK8P4ru5W7-27" value="1" style="text;html=1;strokeColor=none;fillColor=none;align=center;verticalAlign=middle;whiteSpace=wrap;rounded=0;fontSize=22;" vertex="1" parent="1">
          <mxGeometry x="-440" y="120" width="60" height="30" as="geometry" />
        </mxCell>
        <mxCell id="ZCmT-qgDubSK8P4ru5W7-28" value="姓名" style="ellipse;whiteSpace=wrap;html=1;align=center;fontSize=22;" vertex="1" parent="1">
          <mxGeometry x="-810" y="410" width="70" height="50" as="geometry" />
        </mxCell>
        <mxCell id="ZCmT-qgDubSK8P4ru5W7-29" value="性别" style="ellipse;whiteSpace=wrap;html=1;align=center;fontSize=22;" vertex="1" parent="1">
          <mxGeometry x="-680" y="410" width="70" height="50" as="geometry" />
        </mxCell>
        <mxCell id="ZCmT-qgDubSK8P4ru5W7-30" value="学号" style="ellipse;whiteSpace=wrap;html=1;align=center;fontSize=22;" vertex="1" parent="1">
          <mxGeometry x="-550" y="410" width="70" height="50" as="geometry" />
        </mxCell>
        <mxCell id="ZCmT-qgDubSK8P4ru5W7-31" value="班级" style="ellipse;whiteSpace=wrap;html=1;align=center;fontSize=22;" vertex="1" parent="1">
          <mxGeometry x="-420" y="410" width="70" height="50" as="geometry" />
        </mxCell>
        <mxCell id="ZCmT-qgDubSK8P4ru5W7-32" value="年级" style="ellipse;whiteSpace=wrap;html=1;align=center;fontSize=22;" vertex="1" parent="1">
          <mxGeometry x="-290" y="410" width="70" height="50" as="geometry" />
        </mxCell>
        <mxCell id="ZCmT-qgDubSK8P4ru5W7-33" value="专业" style="ellipse;whiteSpace=wrap;html=1;align=center;fontSize=22;" vertex="1" parent="1">
          <mxGeometry x="-160" y="410" width="70" height="50" as="geometry" />
        </mxCell>
        <mxCell id="ZCmT-qgDubSK8P4ru5W7-39" value="" style="endArrow=none;html=1;rounded=0;fontSize=22;entryX=0.47;entryY=1.005;entryDx=0;entryDy=0;entryPerimeter=0;exitX=0.794;exitY=0.052;exitDx=0;exitDy=0;exitPerimeter=0;" edge="1" parent="1" source="ZCmT-qgDubSK8P4ru5W7-28" target="ZCmT-qgDubSK8P4ru5W7-4">
          <mxGeometry relative="1" as="geometry">
            <mxPoint x="-570" y="370" as="sourcePoint" />
            <mxPoint x="-410" y="370" as="targetPoint" />
          </mxGeometry>
        </mxCell>
        <mxCell id="ZCmT-qgDubSK8P4ru5W7-40" value="" style="endArrow=none;html=1;rounded=0;fontSize=22;entryX=0.5;entryY=1;entryDx=0;entryDy=0;exitX=0.96;exitY=0.18;exitDx=0;exitDy=0;exitPerimeter=0;" edge="1" parent="1" source="ZCmT-qgDubSK8P4ru5W7-29" target="ZCmT-qgDubSK8P4ru5W7-4">
          <mxGeometry relative="1" as="geometry">
            <mxPoint x="-570" y="370" as="sourcePoint" />
            <mxPoint x="-410" y="370" as="targetPoint" />
          </mxGeometry>
        </mxCell>
        <mxCell id="ZCmT-qgDubSK8P4ru5W7-41" value="" style="endArrow=none;html=1;rounded=0;fontSize=22;entryX=0.5;entryY=1;entryDx=0;entryDy=0;exitX=0.5;exitY=0;exitDx=0;exitDy=0;" edge="1" parent="1" source="ZCmT-qgDubSK8P4ru5W7-30" target="ZCmT-qgDubSK8P4ru5W7-4">
          <mxGeometry relative="1" as="geometry">
            <mxPoint x="-602.8" y="429" as="sourcePoint" />
            <mxPoint x="-435" y="340" as="targetPoint" />
          </mxGeometry>
        </mxCell>
        <mxCell id="ZCmT-qgDubSK8P4ru5W7-42" value="" style="endArrow=none;html=1;rounded=0;fontSize=22;exitX=0.5;exitY=0;exitDx=0;exitDy=0;" edge="1" parent="1">
          <mxGeometry relative="1" as="geometry">
            <mxPoint x="-390" y="410" as="sourcePoint" />
            <mxPoint x="-450" y="330" as="targetPoint" />
          </mxGeometry>
        </mxCell>
        <mxCell id="ZCmT-qgDubSK8P4ru5W7-43" value="" style="endArrow=none;html=1;rounded=0;fontSize=22;exitX=0.5;exitY=0;exitDx=0;exitDy=0;" edge="1" parent="1" source="ZCmT-qgDubSK8P4ru5W7-32">
          <mxGeometry relative="1" as="geometry">
            <mxPoint x="-380" y="420" as="sourcePoint" />
            <mxPoint x="-450" y="330" as="targetPoint" />
          </mxGeometry>
        </mxCell>
        <mxCell id="ZCmT-qgDubSK8P4ru5W7-44" value="" style="endArrow=none;html=1;rounded=0;fontSize=22;exitX=0.297;exitY=0.076;exitDx=0;exitDy=0;exitPerimeter=0;entryX=0.5;entryY=1;entryDx=0;entryDy=0;" edge="1" parent="1" source="ZCmT-qgDubSK8P4ru5W7-33" target="ZCmT-qgDubSK8P4ru5W7-4">
          <mxGeometry relative="1" as="geometry">
            <mxPoint x="-245" y="410" as="sourcePoint" />
            <mxPoint x="-440" y="340" as="targetPoint" />
          </mxGeometry>
        </mxCell>
        <mxCell id="ZCmT-qgDubSK8P4ru5W7-45" value="性别" style="ellipse;whiteSpace=wrap;html=1;align=center;fontSize=22;" vertex="1" parent="1">
          <mxGeometry x="-920" y="-90" width="70" height="50" as="geometry" />
        </mxCell>
        <mxCell id="ZCmT-qgDubSK8P4ru5W7-46" value="职工号" style="ellipse;whiteSpace=wrap;html=1;align=center;fontSize=22;" vertex="1" parent="1">
          <mxGeometry x="-800" y="-90" width="70" height="50" as="geometry" />
        </mxCell>
        <mxCell id="ZCmT-qgDubSK8P4ru5W7-47" value="职称" style="ellipse;whiteSpace=wrap;html=1;align=center;fontSize=22;" vertex="1" parent="1">
          <mxGeometry x="-1010" y="50" width="70" height="50" as="geometry" />
        </mxCell>
        <mxCell id="ZCmT-qgDubSK8P4ru5W7-48" value="" style="endArrow=none;html=1;rounded=0;fontSize=22;entryX=0.411;entryY=0.98;entryDx=0;entryDy=0;entryPerimeter=0;exitX=0.5;exitY=0;exitDx=0;exitDy=0;" edge="1" parent="1" source="ZCmT-qgDubSK8P4ru5W7-2" target="ZCmT-qgDubSK8P4ru5W7-46">
          <mxGeometry relative="1" as="geometry">
            <mxPoint x="-830" y="50" as="sourcePoint" />
            <mxPoint x="-670" y="50" as="targetPoint" />
          </mxGeometry>
        </mxCell>
        <mxCell id="ZCmT-qgDubSK8P4ru5W7-49" value="" style="endArrow=none;html=1;rounded=0;fontSize=22;entryX=0.5;entryY=1;entryDx=0;entryDy=0;exitX=0.5;exitY=0;exitDx=0;exitDy=0;" edge="1" parent="1" source="ZCmT-qgDubSK8P4ru5W7-2" target="ZCmT-qgDubSK8P4ru5W7-45">
          <mxGeometry relative="1" as="geometry">
            <mxPoint x="-810" y="60" as="sourcePoint" />
            <mxPoint x="-761.23" y="-31" as="targetPoint" />
          </mxGeometry>
        </mxCell>
        <mxCell id="ZCmT-qgDubSK8P4ru5W7-50" value="" style="endArrow=none;html=1;rounded=0;fontSize=22;entryX=1;entryY=1;entryDx=0;entryDy=0;" edge="1" parent="1" target="ZCmT-qgDubSK8P4ru5W7-25">
          <mxGeometry relative="1" as="geometry">
            <mxPoint x="-820" y="50" as="sourcePoint" />
            <mxPoint x="-875" y="-30" as="targetPoint" />
          </mxGeometry>
        </mxCell>
        <mxCell id="ZCmT-qgDubSK8P4ru5W7-51" value="" style="endArrow=none;html=1;rounded=0;fontSize=22;entryX=1;entryY=0.5;entryDx=0;entryDy=0;exitX=0;exitY=0.5;exitDx=0;exitDy=0;" edge="1" parent="1" source="ZCmT-qgDubSK8P4ru5W7-2" target="ZCmT-qgDubSK8P4ru5W7-47">
          <mxGeometry relative="1" as="geometry">
            <mxPoint x="-820" y="50" as="sourcePoint" />
            <mxPoint x="-940.251262658471" y="2.67766952966349" as="targetPoint" />
          </mxGeometry>
        </mxCell>
        <mxCell id="ZCmT-qgDubSK8P4ru5W7-52" value="题材" style="ellipse;whiteSpace=wrap;html=1;align=center;fontSize=22;" vertex="1" parent="1">
          <mxGeometry x="-590" y="-110" width="70" height="50" as="geometry" />
        </mxCell>
        <mxCell id="ZCmT-qgDubSK8P4ru5W7-53" value="题型" style="ellipse;whiteSpace=wrap;html=1;align=center;fontSize=22;" vertex="1" parent="1">
          <mxGeometry x="-485" y="-110" width="70" height="50" as="geometry" />
        </mxCell>
        <mxCell id="ZCmT-qgDubSK8P4ru5W7-55" value="要求" style="ellipse;whiteSpace=wrap;html=1;align=center;fontSize=22;" vertex="1" parent="1">
          <mxGeometry x="-380" y="-110" width="70" height="50" as="geometry" />
        </mxCell>
        <mxCell id="ZCmT-qgDubSK8P4ru5W7-56" value="" style="endArrow=none;html=1;rounded=0;fontSize=22;exitX=0.5;exitY=0;exitDx=0;exitDy=0;entryX=0.634;entryY=0.98;entryDx=0;entryDy=0;entryPerimeter=0;" edge="1" parent="1" source="ZCmT-qgDubSK8P4ru5W7-1" target="ZCmT-qgDubSK8P4ru5W7-52">
          <mxGeometry relative="1" as="geometry">
            <mxPoint x="-570" y="-30" as="sourcePoint" />
            <mxPoint x="-550" y="-70" as="targetPoint" />
          </mxGeometry>
        </mxCell>
        <mxCell id="ZCmT-qgDubSK8P4ru5W7-57" value="" style="endArrow=none;html=1;rounded=0;fontSize=22;exitX=0.5;exitY=0;exitDx=0;exitDy=0;entryX=0.5;entryY=1;entryDx=0;entryDy=0;" edge="1" parent="1" source="ZCmT-qgDubSK8P4ru5W7-1" target="ZCmT-qgDubSK8P4ru5W7-53">
          <mxGeometry relative="1" as="geometry">
            <mxPoint x="-440" y="60" as="sourcePoint" />
            <mxPoint x="-535.6199999999999" y="-51" as="targetPoint" />
          </mxGeometry>
        </mxCell>
        <mxCell id="ZCmT-qgDubSK8P4ru5W7-58" value="" style="endArrow=none;html=1;rounded=0;fontSize=22;exitX=0.5;exitY=0;exitDx=0;exitDy=0;entryX=0.5;entryY=1;entryDx=0;entryDy=0;" edge="1" parent="1" source="ZCmT-qgDubSK8P4ru5W7-1" target="ZCmT-qgDubSK8P4ru5W7-55">
          <mxGeometry relative="1" as="geometry">
            <mxPoint x="-440" y="60" as="sourcePoint" />
            <mxPoint x="-440" y="-50" as="targetPoint" />
          </mxGeometry>
        </mxCell>
        <mxCell id="ZCmT-qgDubSK8P4ru5W7-59" value="姓名" style="ellipse;whiteSpace=wrap;html=1;align=center;fontSize=22;" vertex="1" parent="1">
          <mxGeometry x="60" y="-80" width="70" height="50" as="geometry" />
        </mxCell>
        <mxCell id="ZCmT-qgDubSK8P4ru5W7-60" value="性别" style="ellipse;whiteSpace=wrap;html=1;align=center;fontSize=22;" vertex="1" parent="1">
          <mxGeometry x="60" y="15" width="70" height="50" as="geometry" />
        </mxCell>
        <mxCell id="ZCmT-qgDubSK8P4ru5W7-61" value="职工号" style="ellipse;whiteSpace=wrap;html=1;align=center;fontSize=22;" vertex="1" parent="1">
          <mxGeometry x="60" y="110" width="70" height="50" as="geometry" />
        </mxCell>
        <mxCell id="ZCmT-qgDubSK8P4ru5W7-62" value="院系" style="ellipse;whiteSpace=wrap;html=1;align=center;fontSize=22;" vertex="1" parent="1">
          <mxGeometry x="60" y="210" width="70" height="50" as="geometry" />
        </mxCell>
        <mxCell id="ZCmT-qgDubSK8P4ru5W7-63" value="" style="endArrow=none;html=1;rounded=0;fontSize=22;entryX=0.046;entryY=0.668;entryDx=0;entryDy=0;entryPerimeter=0;" edge="1" parent="1" target="ZCmT-qgDubSK8P4ru5W7-59">
          <mxGeometry relative="1" as="geometry">
            <mxPoint x="-20" y="69.5" as="sourcePoint" />
            <mxPoint x="140" y="69.5" as="targetPoint" />
          </mxGeometry>
        </mxCell>
        <mxCell id="ZCmT-qgDubSK8P4ru5W7-64" value="" style="endArrow=none;html=1;rounded=0;fontSize=22;entryX=0.023;entryY=0.64;entryDx=0;entryDy=0;entryPerimeter=0;exitX=1;exitY=0.5;exitDx=0;exitDy=0;" edge="1" parent="1" source="ZCmT-qgDubSK8P4ru5W7-3" target="ZCmT-qgDubSK8P4ru5W7-60">
          <mxGeometry relative="1" as="geometry">
            <mxPoint x="-10" y="79.5" as="sourcePoint" />
            <mxPoint x="73.2199999999998" y="-36.60000000000002" as="targetPoint" />
          </mxGeometry>
        </mxCell>
        <mxCell id="ZCmT-qgDubSK8P4ru5W7-65" value="" style="endArrow=none;html=1;rounded=0;fontSize=22;entryX=0;entryY=0.5;entryDx=0;entryDy=0;exitX=1;exitY=0.5;exitDx=0;exitDy=0;" edge="1" parent="1" source="ZCmT-qgDubSK8P4ru5W7-3" target="ZCmT-qgDubSK8P4ru5W7-61">
          <mxGeometry relative="1" as="geometry">
            <mxPoint x="-10" y="80" as="sourcePoint" />
            <mxPoint x="71.61000000000013" y="57" as="targetPoint" />
          </mxGeometry>
        </mxCell>
        <mxCell id="ZCmT-qgDubSK8P4ru5W7-66" value="" style="endArrow=none;html=1;rounded=0;fontSize=22;entryX=0.069;entryY=0.292;entryDx=0;entryDy=0;exitX=1;exitY=0.5;exitDx=0;exitDy=0;entryPerimeter=0;" edge="1" parent="1">
          <mxGeometry relative="1" as="geometry">
            <mxPoint x="-20" y="69" as="sourcePoint" />
            <mxPoint x="64.82999999999993" y="223.5999999999999" as="targetPoint" />
          </mxGeometry>
        </mxCell>
        <mxCell id="ZCmT-qgDubSK8P4ru5W7-69" value="N" style="text;html=1;strokeColor=none;fillColor=none;align=center;verticalAlign=middle;whiteSpace=wrap;rounded=0;fontSize=22;" vertex="1" parent="1">
          <mxGeometry x="-570" y="25" width="60" height="30" as="geometry" />
        </mxCell>
        <mxCell id="ZCmT-qgDubSK8P4ru5W7-70" value="1" style="text;html=1;strokeColor=none;fillColor=none;align=center;verticalAlign=middle;whiteSpace=wrap;rounded=0;fontSize=22;" vertex="1" parent="1">
          <mxGeometry x="-390" y="25" width="60" height="30" as="geometry" />
        </mxCell>
        <mxCell id="ZCmT-qgDubSK8P4ru5W7-71" value="&lt;font color=&quot;#990099&quot; style=&quot;font-size: 26px ; line-height: 1.2&quot;&gt;2504210225&lt;br&gt;王生亮&lt;/font&gt;" style="text;html=1;strokeColor=none;fillColor=none;align=center;verticalAlign=middle;whiteSpace=wrap;rounded=0;fontSize=22;" vertex="1" parent="1">
          <mxGeometry x="-1050" y="190" width="150" height="100" as="geometry" />
        </mxCell>
      </root>
    </mxGraphModel>
  </diagram>
</mxfile>
